<svg width="528" height="49" viewBox="0 0 528 49" fill="none" xmlns="http://www.w3.org/2000/svg">
<path d="M40.6824 34.7C40.6824 39.26 38.9424 42.62 35.4624 44.78C32.0224 46.9 26.7824 47.96 19.7424 47.96C15.9024 47.96 12.5224 47.46 9.60242 46.46C6.68242 45.42 4.42242 43.94 2.82242 42.02C1.22242 40.06 0.422422 37.74 0.422422 35.06C0.422422 31.9 1.28242 28.68 3.00242 25.4L6.72242 24.68V23.06L9.06242 23.96C6.54242 27.44 5.28242 30.88 5.28242 34.28C5.28242 37.2 6.50242 39.5 8.94242 41.18C11.4224 42.82 15.2624 43.64 20.4624 43.64C25.6624 43.64 29.5024 42.94 31.9824 41.54C34.5024 40.1 35.7624 38.02 35.7624 35.3C35.7624 33.46 35.3024 32.02 34.3824 30.98C33.4624 29.94 31.8024 29.1 29.4024 28.46C27.0024 27.78 23.3624 27.14 18.4824 26.54C13.7624 25.94 10.1224 25.1 7.56242 24.02C5.00242 22.94 3.24242 21.62 2.28242 20.06C1.36242 18.46 0.902422 16.48 0.902422 14.12C0.902422 11.48 1.60242 9.18 3.00242 7.22C4.40242 5.22 6.44242 3.68 9.12242 2.6C11.8024 1.52 15.0024 0.979999 18.7224 0.979999C25.4824 0.979999 30.5424 2.28 33.9024 4.88C37.2624 7.44 38.9424 11.54 38.9424 17.18C38.9024 19.22 38.6024 21.32 38.0424 23.48L34.6824 24.68V26.24L32.5224 25.34C33.0424 24.02 33.4224 22.72 33.6624 21.44C33.9024 20.12 34.0224 18.9 34.0224 17.78C34.0624 13.46 32.7424 10.34 30.0624 8.42C27.4224 6.5 23.6424 5.54 18.7224 5.54C14.6024 5.54 11.3824 6.28 9.06242 7.76C6.74242 9.24 5.58242 11.36 5.58242 14.12C5.58242 15.68 5.96242 16.94 6.72242 17.9C7.52242 18.86 9.12242 19.72 11.5224 20.48C13.9624 21.24 17.6624 21.94 22.6224 22.58C26.9824 23.1 30.4624 23.86 33.0624 24.86C35.7024 25.82 37.6224 27.1 38.8224 28.7C40.0624 30.3 40.6824 32.3 40.6824 34.7ZM52.0027 47H47.1427V2H52.0027V47ZM49.9627 27.08V22.7H82.8427L82.9627 27.08H49.9627ZM85.6027 47H80.7427V2H85.6027V47ZM88.9946 47L108.015 2H112.935L94.3946 47H88.9946ZM96.5546 36.5V32.54H127.515V36.5H96.5546ZM135.015 47H129.615L111.015 2H116.055L135.015 47ZM113.415 2.9V5.84H110.535V2.9H113.415ZM143.233 47H138.373V2H143.233V47ZM176.533 46.34V47H171.253C170.813 46.16 170.493 45.06 170.293 43.7C170.093 42.34 169.993 40.64 169.993 38.6C169.993 36.12 169.513 34.2 168.553 32.84C167.593 31.48 166.013 30.52 163.813 29.96C161.613 29.36 158.553 29.06 154.633 29.06H141.673V26H153.433L163.393 27.02C167.353 27.46 170.253 28.58 172.093 30.38C173.973 32.18 174.913 34.74 174.913 38.06C174.913 39.9 175.033 41.48 175.273 42.8C175.553 44.08 175.973 45.26 176.533 46.34ZM155.713 2C160.113 2 163.713 2.42 166.513 3.26C169.353 4.06 171.453 5.38 172.813 7.22C174.213 9.06 174.913 11.5 174.913 14.54C174.913 17.9 174.013 20.5 172.213 22.34C170.413 24.18 167.473 25.48 163.393 26.24V27.02L153.433 27.8H141.673V24.8H154.393C159.273 24.8 163.013 24.1 165.613 22.7C168.213 21.26 169.513 18.74 169.513 15.14C169.513 12.74 168.973 10.9 167.893 9.62C166.813 8.34 165.273 7.48 163.273 7.04C161.273 6.6 158.613 6.38 155.293 6.38H141.673V2H155.713ZM186.944 47H182.084V2H186.944V47ZM185.444 47V42.62H218.204V47H185.444ZM185.444 6.38V2H218.204V6.38H185.444ZM185.444 26.42V22.4H213.764V26.42H185.444ZM229.416 47H224.916V2H229.416V47ZM228.396 2H233.616L254.616 47H249.696L228.396 2ZM277.536 2L256.296 47H251.376L272.256 2H277.536ZM276.576 47V2H281.016V47H276.576ZM227.436 5.9V3.56H232.656V5.9H227.436ZM273.756 5.9V3.02H279.216V5.9H273.756ZM250.476 45.44V42.14H255.576V45.44H250.476ZM308.165 48.02C303.445 48.02 299.465 47.18 296.225 45.5C292.985 43.78 290.525 41.14 288.845 37.58C287.165 34.02 286.325 29.52 286.325 24.08C286.325 18.92 287.385 14.62 289.505 11.18C291.625 7.7 294.345 5.14 297.665 3.5C301.025 1.86 304.525 1.04 308.165 1.04C313.005 1.04 317.045 1.9 320.285 3.62C323.525 5.34 325.965 7.98 327.605 11.54C329.245 15.1 330.065 19.62 330.065 25.1C330.065 30.38 329.125 34.72 327.245 38.12C325.405 41.52 322.825 44.02 319.505 45.62C316.225 47.22 312.445 48.02 308.165 48.02ZM308.465 43.4C311.945 43.4 314.905 42.88 317.345 41.84C319.785 40.8 321.705 38.94 323.105 36.26C324.505 33.58 325.205 29.86 325.205 25.1C325.205 18.3 323.585 13.4 320.345 10.4C317.105 7.36 312.965 5.84 307.925 5.84C304.405 5.84 301.425 6.36 298.985 7.4C296.585 8.4 294.685 10.24 293.285 12.92C291.885 15.6 291.185 19.32 291.185 24.08C291.225 30.92 292.845 35.86 296.045 38.9C299.245 41.9 303.385 43.4 308.465 43.4ZM339.865 47H335.365V2H339.865V47ZM338.845 2H344.065L365.065 47H360.145L338.845 2ZM387.985 2L366.745 47H361.825L382.705 2H387.985ZM387.025 47V2H391.465V47H387.025ZM337.885 5.9V3.56H343.105V5.9H337.885ZM384.205 5.9V3.02H389.665V5.9H384.205ZM360.925 45.44V42.14H366.025V45.44H360.925ZM404.034 47H399.174V2H404.034V47ZM402.534 47V42.62H435.294V47H402.534ZM402.534 6.38V2H435.294V6.38H402.534ZM402.534 26.42V22.4H430.854V26.42H402.534ZM446.506 47H442.006V2H446.506V47ZM444.826 2H450.346L479.866 47H474.286L444.826 2ZM478.126 2H482.626V47H478.126V2ZM444.226 6.38V4.22H449.806V6.38H444.226ZM475.186 44.66V42.5H480.406V44.66H475.186ZM509.907 47H505.107V2H509.907V47ZM487.047 6.38V2H527.907V6.38H487.047Z" fill="white"/>
</svg>
