<svg width="51" height="28" viewBox="0 0 51 28" fill="none" xmlns="http://www.w3.org/2000/svg">
<path d="M10.98 0.819999C11.58 0.539998 12.4 0.399997 13.44 0.399997C14.48 0.399997 15.72 0.819998 17.16 1.66C18.6 2.46 19.32 3.42 19.32 4.54C19.32 5.62 18.88 6.6 18 7.48C17.16 8.36 16.2 8.8 15.12 8.8C13.48 8.8 12.34 8.04 11.7 6.52C11.62 6.28 11.48 6.16 11.28 6.16C11.12 6.16 10.46 6.4 9.3 6.88C8.18 7.36 7.42 7.7 7.02 7.9C6.62 8.1 6.42 8.3 6.42 8.5C6.42 8.66 6.7 8.88 7.26 9.16C14.38 11.08 17.94 14.02 17.94 17.98C17.94 19.38 17.38 20.84 16.26 22.36C15.18 23.84 13.64 25.06 11.64 26.02C9.64 26.98 7.72 27.46 5.88 27.46C4.04 27.46 2.74 26.96 1.98 25.96C1.26 24.96 0.9 23.52 0.9 21.64C0.9 19.76 1.56 18.36 2.88 17.44C4.64 16.28 6.08 15.7 7.2 15.7C7.48 15.7 7.62 15.78 7.62 15.94C7.62 16.06 7.3 16.3 6.66 16.66C6.06 17.02 5.4 17.54 4.68 18.22C4 18.9 3.66 19.46 3.66 19.9C3.66 20.3 4.14 20.5 5.1 20.5C7.66 20.5 10.18 19.78 12.66 18.34C13.22 18.06 13.5 17.74 13.5 17.38C13.5 16.98 13.08 16.58 12.24 16.18C11.4 15.78 9.98 15.2 7.98 14.44C6.02 13.68 4.46 13.04 3.3 12.52C2.18 11.96 1.62 11.06 1.62 9.82C1.62 9.46 1.7 8.96 1.86 8.32C2.06 7.64 2.18 7.18 2.22 6.94C2.42 5.54 3.04 4.58 4.08 4.06C5.16 3.54 7.46 2.46 10.98 0.819999ZM40.1559 7.12C40.1559 6.64 40.1159 6.4 40.0359 6.4C39.8759 6.4 39.6959 6.72 39.4959 7.36C38.7759 9.2 37.0959 14.94 34.4559 24.58C34.0559 25.98 33.6359 26.68 33.1959 26.68C32.9959 26.68 32.6359 26.52 32.1159 26.2C30.0759 24.72 29.0559 22.9 29.0559 20.74C29.0559 19.02 29.3359 16.68 29.8959 13.72C30.5359 10.04 30.8559 8.06 30.8559 7.78C30.8559 7.46 30.7959 7.3 30.6759 7.3C30.5959 7.3 30.4559 7.5 30.2559 7.9C28.2159 12.78 26.9759 18.6 26.5359 25.36C26.4559 26.56 26.0559 27.16 25.3359 27.16C24.3759 27.16 23.5159 26.6 22.7559 25.48C21.3559 23.48 20.6559 21.24 20.6559 18.76C20.6559 17.2 20.8359 15.22 21.1959 12.82C21.5959 10.42 21.8359 8.96 21.9159 8.44C22.5959 4.24 23.2159 2.14 23.7759 2.14C24.2159 2.14 24.5559 2.72 24.7959 3.88C25.0359 5 25.1559 5.82 25.1559 6.34C25.1559 6.86 25.2359 7.12 25.3959 7.12C25.8359 7.12 26.2759 6.66 26.7159 5.74C27.1559 4.78 27.6959 3.84 28.3359 2.92C28.9759 1.96 29.7559 1.48 30.6759 1.48C31.6359 1.48 32.5159 1.84 33.3159 2.56C34.1159 3.24 34.6159 4.08 34.8159 5.08C35.2959 4.4 36.0959 3.46 37.2159 2.26C37.8159 1.42 38.4159 1 39.0159 1C39.6559 1 40.5759 1.3 41.7759 1.9C43.4159 2.74 44.2359 4.94 44.2359 8.5C44.2359 12.06 44.1159 15.12 43.8759 17.68V18.1C43.8759 18.7 43.9959 19 44.2359 19C44.5959 19 45.4759 18 46.8759 16C48.2759 13.96 49.1359 12.94 49.4559 12.94C50.0159 12.94 50.2959 14.38 50.2959 17.26C50.2959 20.1 49.2759 22.94 47.2359 25.78C46.2759 27.1 45.4559 27.76 44.7759 27.76L44.1159 27.58C42.5159 26.74 41.3759 25.78 40.6959 24.7C40.0159 23.62 39.6759 21.9 39.6759 19.54L40.1559 7.12Z" fill="#3182CE"/>
</svg>
